# xmcd
#
# Track frame offsets: 
#        150
#        22076
#        58738
#        72083
#        98919
#        119791
#        137614
#        156678
#        165138
#        176805
#        195429
#        207846
#        226663
#        249775
#
# Disc length: 4446 seconds
#
# Revision: 0
# Processed by: cddbd v1.5.2PL0 Copyright (c) Steve Scherf et al.
# Submitted via: ExactAudioCopy v0.95b3
#
DISCID=bd115c0e
DTITLE=Jimi Hendrix  - Moonbeams and Fairytales - Disc 21
DYEAR=1900
DGENRE=
TTITLE0=Foxy Lady
TTITLE1=Catfish Blues
TTITLE2=Purple Haze
TTITLE3=Purple Haze
TTITLE4=Purple Haze
TTITLE5=Angel
TTITLE6=Angel
TTITLE7=Sgt Pepper's Lonely Hearts Club Band
TTITLE8=Fire
TTITLE9=Hey Joe
TTITLE10=The Wind Cries Mary
TTITLE11=Purple Haze
TTITLE12=Wild Thing
TTITLE13=Interview (Meatball Fulton)
EXTD=
EXTT0=
EXTT1=
EXTT2=
EXTT3=
EXTT4=
EXTT5=
EXTT6=
EXTT7=
EXTT8=
EXTT9=
EXTT10=
EXTT11=
EXTT12=
EXTT13=
PLAYORDER=
